<svg xmlns="http://www.w3.org/2000/svg"><svg width="50.1%" viewBox="0 0 400000 522" preserveAspectRatio="xMinYMin slice"><path d="M40 241c740 0 0 0 0 0v-75c0-40.7-.2-64.3-.5-71-.3-6.7-2.2-11.7-5.5-15-4-4-8.7-6-14-6-5.3 0-10 2-14 6C2.7 83.3.8 91.3.5 104 .2 116.7 0 169 0 261c0 114 .7 172.3 2 175 4 8 10 12 18 12 5.3 0 10-2 14-6 3.3-3.3 5.2-8.3 5.5-15 .3-6.7.5-30.3.5-71v-75h399960zm0 0v40h399960v-40z"/></svg><svg x="50%" width="50%" viewBox="0 0 400000 522" preserveAspectRatio="xMaxYMin slice"><path d="M0 241l399891 40c-47.3 35.3-84 78-110 128-16.7 32-27.7 63.7-33 95 0 1.3-.2 2.7-.5 4-.3 1.3-.5 2.3-.5 3 0 7.3 6.7 11 20 11 8 0 13.2-.8 15.5-2.5 2.3-1.7 4.2-5.5 5.5-11.5 2-13.3 5.7-27 11-41 14.7-44.7 39-84.5 73-119.5s73.7-60.2 119-75.5c6-2 9-5.7 9-11s-3-9-9-11c-45.3-15.3-85-40.5-119-75.5s-58.3-74.8-73-119.5c-4.7-14-8.3-27.3-11-40-1.3-6.7-3.2-10.8-5.5-12.5-2.3-1.7-7.5-2.5-15.5-2.5-14 0-21 3.7-21 11 0 2 2 10.3 6 25 20.7 83.3 67 151.7 139 205zm0 0v40h399900v-40z"/></svg></svg>