<?xml version="1.0" encoding="UTF-8" standalone="no"?>
<!-- Created with Inkscape (http://www.inkscape.org/) -->

<svg
   xmlns:dc="http://purl.org/dc/elements/1.1/"
   xmlns:cc="http://creativecommons.org/ns#"
   xmlns:rdf="http://www.w3.org/1999/02/22-rdf-syntax-ns#"
   xmlns:svg="http://www.w3.org/2000/svg"
   xmlns="http://www.w3.org/2000/svg"
   xmlns:sodipodi="http://sodipodi.sourceforge.net/DTD/sodipodi-0.dtd"
   xmlns:inkscape="http://www.inkscape.org/namespaces/inkscape"
   width="26.441164mm"
   height="21.88455mm"
   viewBox="0 0 93.689164 77.543681"
   id="svg4175"
   version="1.1"
   inkscape:version="0.91 r13725"
   sodipodi:docname="cocalc-logo-solo.svg">
  <defs
     id="defs4177" />
  <sodipodi:namedview
     id="base"
     pagecolor="#ffffff"
     bordercolor="#666666"
     borderopacity="1.0"
     inkscape:pageopacity="0.0"
     inkscape:pageshadow="2"
     inkscape:zoom="5.6"
     inkscape:cx="40.255927"
     inkscape:cy="13.319549"
     inkscape:document-units="px"
     inkscape:current-layer="layer1"
     showgrid="false"
     fit-margin-top="0"
     fit-margin-left="0"
     fit-margin-right="0"
     fit-margin-bottom="0"
     inkscape:window-width="1920"
     inkscape:window-height="1056"
     inkscape:window-x="0"
     inkscape:window-y="24"
     inkscape:window-maximized="1" />
  <metadata
     id="metadata4180">
    <rdf:RDF>
      <cc:Work
         rdf:about="">
        <dc:format>image/svg+xml</dc:format>
        <dc:type
           rdf:resource="http://purl.org/dc/dcmitype/StillImage" />
        <dc:title></dc:title>
      </cc:Work>
    </rdf:RDF>
  </metadata>
  <g
     inkscape:label="Layer 1"
     inkscape:groupmode="layer"
     id="layer1"
     transform="translate(101.13029,-287.87607)">
    <g
       transform="scale(1.0014175,0.99858451)"
       style="font-style:normal;font-variant:normal;font-weight:normal;font-stretch:normal;font-size:19.55169678px;line-height:100%;font-family:CoCalc;-inkscape-font-specification:CoCalc;text-align:start;letter-spacing:0px;word-spacing:0px;writing-mode:lr-tb;text-anchor:start;fill:#434343;fill-opacity:1;stroke:none;stroke-width:1px;stroke-linecap:butt;stroke-linejoin:miter;stroke-opacity:1"
       id="text4155">
      <path
         d="m -91.423171,362.73782 c 0.997137,0.25417 2.052928,0.29328 3.10872,0.0978 1.055792,-0.19552 2.013825,-0.54745 2.874099,-1.11445 l -2.346203,-1.68144 c -0.703861,0.37148 -2.111583,0.39103 -3.050065,0.17596 -0.664758,-0.15641 -1.27086,-0.43013 -1.818308,-0.84072 -0.547447,-0.39103 -0.997136,-0.84072 -1.38817,-1.40772 -0.391034,-0.58655 -0.625654,-1.23176 -0.762516,-1.93562 -0.136862,-0.70386 -0.09776,-1.38817 0.05866,-2.07248 0.156413,-0.66476 0.430137,-1.29041 0.821171,-1.81831 0.391034,-0.54744 0.840723,-0.99713 1.427274,-1.38817 0.566999,-0.37148 1.231757,-0.6061 1.935618,-0.74296 1.38817,-0.25417 2.678582,0.0391 3.890788,0.86027 l 1.50548,-2.13113 c -0.840723,-0.58655 -1.759653,-0.97759 -2.756789,-1.23176 -0.997137,-0.25417 -2.033377,-0.27372 -3.089168,-0.0782 -1.055792,0.19552 -2.013825,0.567 -2.8741,1.134 -0.879826,0.567 -1.603239,1.25131 -2.18979,2.09203 -0.566999,0.82117 -0.958033,1.72055 -1.212205,2.71769 -0.254172,1.01669 -0.293275,2.05293 -0.09776,3.10872 0.195517,1.03624 0.547447,1.97472 1.114446,2.85455 0.567,0.87982 1.290412,1.60324 2.111584,2.18979 0.840723,0.567 1.720549,0.95803 2.737237,1.2122 z"
         style=""
         id="path4740" />
      <path
         d="m -76.382665,347.33109 c -2.170238,0 -4.008098,0.78206 -5.513578,2.3071 -1.525033,1.52503 -2.3071,3.36289 -2.3071,5.51357 0,2.17024 0.782067,3.98855 2.3071,5.51358 1.525032,1.52503 3.34334,2.3071 5.513578,2.3071 2.170239,0 3.988546,-0.78207 5.513579,-2.3071 1.544584,-1.50548 2.326652,-3.34334 2.326652,-5.51358 0,-2.15068 -0.782068,-3.98854 -2.326652,-5.51357 -1.525033,-1.52504 -3.34334,-2.3071 -5.513579,-2.3071 z m 0,2.61992 c 1.427274,0 2.659031,0.50835 3.675719,1.52503 1.016689,1.01669 1.525033,2.24845 1.525033,3.67572 0,1.42728 -0.488793,2.65903 -1.525033,3.69527 -1.016688,1.01669 -2.248445,1.50549 -3.675719,1.50549 -1.427274,0 -2.678582,-0.4888 -3.69527,-1.50549 -1.016689,-1.01668 -1.505481,-2.26799 -1.505481,-3.69527 0,-1.42727 0.488792,-2.65903 1.505481,-3.67572 1.03624,-1.03624 2.267996,-1.52503 3.69527,-1.52503 z"
         style=""
         id="path4742" />
      <path
         d="m -60.777268,362.73782 c 0.997136,0.25417 2.052928,0.29328 3.10872,0.0978 1.055791,-0.19552 2.013824,-0.54745 2.874099,-1.11445 l -2.346204,-1.68144 c -0.703861,0.37148 -2.111583,0.39103 -3.050064,0.17596 -0.664758,-0.15641 -1.270861,-0.43013 -1.818308,-0.84072 -0.547448,-0.39103 -0.997137,-0.84072 -1.388171,-1.40772 -0.391033,-0.58655 -0.625654,-1.23176 -0.762516,-1.93562 -0.136862,-0.70386 -0.09776,-1.38817 0.05866,-2.07248 0.156414,-0.66476 0.430138,-1.29041 0.821172,-1.81831 0.391034,-0.54744 0.840723,-0.99713 1.427274,-1.38817 0.566999,-0.37148 1.231756,-0.6061 1.935618,-0.74296 1.38817,-0.25417 2.678582,0.0391 3.890787,0.86027 l 1.505481,-2.13113 c -0.840723,-0.58655 -1.759653,-0.97759 -2.756789,-1.23176 -0.997137,-0.25417 -2.033377,-0.27372 -3.089169,-0.0782 -1.055791,0.19552 -2.013824,0.567 -2.874099,1.134 -0.879826,0.567 -1.603239,1.25131 -2.18979,2.09203 -0.566999,0.82117 -0.958033,1.72055 -1.212205,2.71769 -0.254172,1.01669 -0.293276,2.05293 -0.09776,3.10872 0.195517,1.03624 0.547448,1.97472 1.114447,2.85455 0.566999,0.87982 1.290412,1.60324 2.111583,2.18979 0.840723,0.567 1.72055,0.95803 2.737238,1.2122 z"
         style=""
         id="path4744" />
      <path
         d="m -47.997312,357.77169 2.3071,-4.59465 2.287548,4.59465 2.932755,0 -5.220303,-10.4406 -7.820679,15.64135 2.893651,0 1.329516,-2.61992 1.290412,-2.58083 z m 8.817815,2.60038 -2.893651,0 1.290412,2.60037 2.913202,0 -1.309963,-2.60037 z"
         style=""
         id="path4746" />
      <path
         d="m -32.460057,360.35252 -2.600375,2.61992 10.421054,0 0,-2.61992 -7.820679,0 z m -2.600375,-13.02143 0,0.43013 0,11.67237 2.600375,-2.61993 0,-9.05244 0,-0.43013 -2.600375,0 z"
         style=""
         id="path4748" />
      <path
         d="m -17.164183,362.73782 c 0.997136,0.25417 2.052928,0.29328 3.108719,0.0978 1.055792,-0.19552 2.013825,-0.54745 2.8741,-1.11445 l -2.346204,-1.68144 c -0.703861,0.37148 -2.111583,0.39103 -3.050064,0.17596 -0.664758,-0.15641 -1.270861,-0.43013 -1.818308,-0.84072 -0.547448,-0.39103 -0.997137,-0.84072 -1.388171,-1.40772 -0.391034,-0.58655 -0.625654,-1.23176 -0.762516,-1.93562 -0.136862,-0.70386 -0.09776,-1.38817 0.05866,-2.07248 0.156414,-0.66476 0.430138,-1.29041 0.821171,-1.81831 0.391034,-0.54744 0.840723,-0.99713 1.427274,-1.38817 0.567,-0.37148 1.231757,-0.6061 1.935618,-0.74296 1.388171,-0.25417 2.678583,0.0391 3.890788,0.86027 l 1.505481,-2.13113 c -0.840723,-0.58655 -1.759653,-0.97759 -2.75679,-1.23176 -0.997136,-0.25417 -2.033376,-0.27372 -3.089168,-0.0782 -1.055791,0.19552 -2.013824,0.567 -2.874099,1.134 -0.879826,0.567 -1.603239,1.25131 -2.18979,2.09203 -0.566999,0.82117 -0.958033,1.72055 -1.212205,2.71769 -0.254172,1.01669 -0.293276,2.05293 -0.09776,3.10872 0.195517,1.03624 0.547448,1.97472 1.114447,2.85455 0.566999,0.87982 1.290412,1.60324 2.111583,2.18979 0.840723,0.567 1.720549,0.95803 2.737238,1.2122 z"
         style=""
         id="path4750" />
    </g>
    <g
       transform="translate(-347.96137,-190.44942)"
       id="g4148">
      <path
         inkscape:connector-curvature="0"
         transform="translate(246.83107,478.3255)"
         id="path4192"
         d="m 46.84375,14.449219 c -1.048339,0 -2.069543,0.105796 -3.056641,0.30664 -0.987098,0.200844 -1.939789,0.497162 -2.845703,0.878907 -0.905914,0.381744 -1.765526,0.849876 -2.570312,1.392578 -0.804787,0.542702 -1.554566,1.160034 -2.238282,1.84375 -0.683715,0.683716 -1.301048,1.433494 -1.84375,2.238281 -0.542701,0.804787 -1.010833,1.664399 -1.392578,2.570313 -0.381744,0.905913 -0.678062,1.858605 -0.878906,2.845703 -0.200844,0.987098 -0.30664,2.008302 -0.30664,3.05664 0,1.048339 0.105796,2.071496 0.30664,3.058594 0.200844,0.987098 0.497162,1.937836 0.878906,2.84375 0.381745,0.905914 0.849877,1.767478 1.392578,2.572266 0.542702,0.804787 1.160035,1.554564 1.84375,2.238281 0.683716,0.683716 1.433495,1.301047 2.238282,1.84375 0.804786,0.542702 1.664398,1.010833 2.570312,1.392578 0.905914,0.381745 1.858605,0.678062 2.845703,0.878906 0.987098,0.200844 2.008302,0.304688 3.056641,0.304688 1.048339,0 2.071496,-0.103844 3.058594,-0.304688 0.987098,-0.200844 1.939789,-0.497161 2.845703,-0.878906 0.905914,-0.381745 1.765526,-0.849876 2.570312,-1.392578 0.804787,-0.542703 1.554566,-1.160034 2.238282,-1.84375 0.683716,-0.683717 1.301048,-1.433494 1.84375,-2.238281 0.542702,-0.804788 1.010833,-1.666352 1.392578,-2.572266 0.381744,-0.905914 0.678062,-1.856652 0.878906,-2.84375 0.200844,-0.987098 0.304687,-2.010255 0.304687,-3.058594 0,-1.048338 -0.103843,-2.069542 -0.304687,-3.05664 -0.200844,-0.987098 -0.497162,-1.93979 -0.878906,-2.845703 -0.381745,-0.905914 -0.849876,-1.765526 -1.392578,-2.570313 -0.542702,-0.804787 -1.160034,-1.554565 -1.84375,-2.238281 -0.683716,-0.683716 -1.433495,-1.301048 -2.238282,-1.84375 -0.804786,-0.542702 -1.664398,-1.010834 -2.570312,-1.392578 -0.905914,-0.381745 -1.858605,-0.678063 -2.845703,-0.878907 -0.987098,-0.200844 -2.010255,-0.30664 -3.058594,-0.30664 z"
         style="color:#000000;clip-rule:nonzero;display:inline;overflow:visible;visibility:visible;opacity:1;isolation:auto;mix-blend-mode:normal;color-interpolation:sRGB;color-interpolation-filters:linearRGB;solid-color:#000000;solid-opacity:1;fill:#fbb635;fill-opacity:1;fill-rule:nonzero;stroke:none;stroke-width:1;stroke-linecap:square;stroke-linejoin:round;stroke-miterlimit:4;stroke-dasharray:none;stroke-dashoffset:0;stroke-opacity:1;color-rendering:auto;image-rendering:auto;shape-rendering:auto;text-rendering:auto;enable-background:accumulate" />
      <path
         inkscape:connector-curvature="0"
         id="path4173"
         transform="translate(246.83107,478.3255)"
         d="m 44.34375,4.7070312 a 25,25 0 0 0 -22.5,24.8749998 25,25 0 0 0 2.226562,10.261719 l 4.341797,-2.507812 c -0.503213,-1.189907 -0.894442,-2.437476 -1.160156,-3.730469 -0.26715,-1.299982 -0.408203,-2.646328 -0.408203,-4.023438 0,-1.377108 0.141053,-2.721503 0.408203,-4.021484 0.26715,-1.299981 0.660815,-2.554292 1.167969,-3.75 0.507153,-1.195708 1.127645,-2.332195 1.847656,-3.396485 0.720011,-1.064288 1.53959,-2.057167 2.445313,-2.96289 0.905722,-0.905723 1.898602,-1.725301 2.96289,-2.445313 1.064289,-0.720011 2.200777,-1.340502 3.396485,-1.847656 1.195708,-0.507153 2.450018,-0.900819 3.75,-1.1679686 0.500222,-0.1027971 1.008777,-0.1814898 1.521484,-0.2460938 l 0,-5.0371094 z m 5,0.025391 0,5.0117187 c 0.513417,0.064621 1.022878,0.1432274 1.523438,0.2460938 1.299981,0.2671493 2.554292,0.6608153 3.75,1.1679683 1.195706,0.507154 2.332195,1.127645 3.396484,1.847656 1.064288,0.720012 2.057168,1.53959 2.96289,2.445313 0.905724,0.905723 1.725302,1.898602 2.445313,2.96289 0.720011,1.064289 1.340503,2.200777 1.847656,3.396485 0.507154,1.195708 0.900819,2.450019 1.167969,3.75 0.26715,1.299981 0.40625,2.644376 0.40625,4.021484 0,1.37711 -0.1391,2.723456 -0.40625,4.023438 -0.26576,1.293217 -0.65877,2.540376 -1.162109,3.730469 l 4.333984,2.501953 a 25,25 0 0 0 2.234375,-10.25586 25,25 0 0 0 -22.5,-24.8496088 z M 30.939453,41.650391 26.572266,44.171875 A 25,25 0 0 0 46.84375,54.582031 25,25 0 0 0 67.109375,44.167969 L 62.75,41.650391 c -0.550437,0.723588 -1.131745,1.422761 -1.773438,2.064453 -0.905722,0.905722 -1.898602,1.725301 -2.96289,2.445312 -1.064289,0.720011 -2.200777,1.340503 -3.396484,1.847656 -1.195708,0.507154 -2.450019,0.90082 -3.75,1.167969 -1.299982,0.26715 -2.646329,0.40625 -4.023438,0.40625 -1.377109,0 -2.721503,-0.1391 -4.021484,-0.40625 -1.299982,-0.267149 -2.554292,-0.660813 -3.75,-1.167969 -1.195708,-0.507153 -2.332196,-1.127645 -3.396485,-1.847656 -1.064288,-0.720011 -2.057168,-1.53959 -2.96289,-2.445312 -0.641692,-0.641692 -1.223,-1.340865 -1.773438,-2.064453 z"
         style="color:#000000;clip-rule:nonzero;display:inline;overflow:visible;visibility:visible;opacity:1;isolation:auto;mix-blend-mode:normal;color-interpolation:sRGB;color-interpolation-filters:linearRGB;solid-color:#000000;solid-opacity:1;fill:#4474c0;fill-opacity:1;fill-rule:nonzero;stroke:none;stroke-width:1;stroke-linecap:square;stroke-linejoin:round;stroke-miterlimit:4;stroke-dasharray:none;stroke-dashoffset:0;stroke-opacity:1;color-rendering:auto;image-rendering:auto;shape-rendering:auto;text-rendering:auto;enable-background:accumulate" />
    </g>
  </g>
</svg>
