<svg xmlns="http://www.w3.org/2000/svg" viewBox="0 0 120 40.541"><g fill="#fff"><path d="M4.618,27.925c-0.299,0.299-0.591,0.478-0.874,0.538c-0.284,0.06-1.039,0.105-2.264,0.135H0v2.062h0.493 c0.508-0.09,2.66-0.135,6.456-0.135c3.796,0,5.948,0.045,6.456,0.135h0.493v-2.062h-1.48c-1.764-0.029-2.765-0.209-3.004-0.538 c-0.09-0.119-0.135-1.584-0.135-4.394v-4.259l2.062-2.018c0.388-0.359,0.777-0.724,1.166-1.098 c0.388-0.373,0.687-0.665,0.897-0.874c0.209-0.209,0.388-0.373,0.538-0.493l3.901,5.873c2.331,3.587,3.661,5.62,3.99,6.098 c0.09,0.179,0.135,0.359,0.135,0.538c0,0.778-0.688,1.166-2.062,1.166h-0.359v2.062h0.493c0.628-0.09,2.764-0.135,6.412-0.135 c0.269,0,0.673,0.008,1.211,0.022c0.538,0.015,0.956,0.022,1.255,0.022c0.298,0,0.68,0.008,1.143,0.022 c0.463,0.015,0.807,0.03,1.031,0.045c0.224,0.015,0.366,0.022,0.426,0.022h0.359v-2.062h-0.942 c-1.255-0.029-2.152-0.194-2.69-0.493c-0.419-0.239-0.778-0.583-1.076-1.031c-0.179-0.269-1.906-2.862-5.179-7.779 c-3.273-4.917-4.91-7.39-4.91-7.42c0-0.029,1.33-1.33,3.99-3.901c2.66-2.57,4.065-3.93,4.215-4.08 c1.315-1.076,3.094-1.674,5.335-1.793h0.628V0.037h-0.269c-0.03,0-0.135,0.008-0.314,0.022c-0.179,0.015-0.434,0.03-0.762,0.045 c-0.329,0.015-0.613,0.022-0.852,0.022c-0.209,0-0.523,0.008-0.942,0.022c-0.419,0.015-0.747,0.022-0.986,0.022 c-3.408,0-5.366-0.045-5.873-0.135h-0.448v2.062h0.179l0.202,0.022l0.247,0.022c0.836,0.209,1.255,0.643,1.255,1.3 c-0.06,0.24-0.12,0.404-0.179,0.493c-0.06,0.12-2.272,2.317-6.636,6.591l-6.546,6.367l-0.045-6.95c0-4.663,0.015-7.024,0.045-7.084 c0.06-0.508,0.897-0.762,2.511-0.762h1.076h0.986V0.037h-0.493c-0.509,0.09-2.661,0.135-6.456,0.135 c-3.796,0-5.948-0.045-6.456-0.135H0v2.062h1.48c1.225,0.03,1.98,0.075,2.264,0.135c0.284,0.06,0.575,0.24,0.874,0.538V27.925z"/><path d="M39.542,11.067h1.793v-0.269c0.029-0.119,0.074-0.478,0.135-1.076c0.239-3.198,0.836-5.201,1.793-6.008 c0.747-0.628,1.763-1.046,3.049-1.255c0.298-0.029,1.15-0.045,2.556-0.045h1.211c0.687,0,1.113,0.022,1.278,0.067 c0.164,0.045,0.291,0.202,0.381,0.471c0.029,0.06,0.045,4.23,0.045,12.509v12.375c-0.24,0.329-0.613,0.538-1.121,0.628 c-1.076,0.09-2.421,0.135-4.035,0.135h-1.345v2.062h0.583c0.628-0.09,3.377-0.135,8.25-0.135c4.872,0,7.622,0.045,8.25,0.135h0.583 v-2.062h-1.345c-1.614,0-2.959-0.045-4.035-0.135c-0.509-0.09-0.882-0.298-1.121-0.628V15.461c0-8.279,0.015-12.449,0.045-12.509 c0.09-0.269,0.216-0.426,0.381-0.471c0.164-0.045,0.59-0.067,1.278-0.067h1.211c1.674,0,2.825,0.075,3.452,0.224 c1.136,0.329,1.957,0.807,2.466,1.435c0.747,0.867,1.225,2.75,1.435,5.649c0.06,0.598,0.104,0.957,0.135,1.076v0.269h1.793v-0.269 c0-0.06-0.134-1.763-0.404-5.111c-0.269-3.347-0.419-5.051-0.448-5.111V0.306H40.394v0.269c0,0.06-0.135,1.764-0.404,5.111 c-0.269,3.348-0.419,5.052-0.448,5.111V11.067z"/><path d="M100.003,30.66v-2.062h-0.359c-0.658-0.06-1.226-0.254-1.704-0.583c-0.478-0.329-0.717-0.702-0.717-1.121 c0-0.209,0.015-0.329,0.045-0.359c0.029-0.09,1.031-1.629,3.004-4.618c0.448-0.687,0.836-1.293,1.166-1.816 c0.329-0.523,0.605-0.956,0.829-1.3c0.224-0.343,0.411-0.62,0.56-0.829c0.149-0.209,0.254-0.343,0.314-0.404l0.135-0.135 l1.659,2.556c1.105,1.704,2.197,3.408,3.273,5.111c1.076,1.704,1.614,2.6,1.614,2.69c0,0.209-0.314,0.397-0.942,0.56 c-0.628,0.165-1.196,0.247-1.704,0.247h-0.269v2.062h0.493c0.687-0.09,2.869-0.135,6.546-0.135c3.318,0,5.201,0.045,5.649,0.135 H120v-2.062h-1.39c-1.166-0.029-1.958-0.09-2.376-0.179c-0.419-0.09-0.747-0.269-0.986-0.538c-0.09-0.09-1.667-2.526-4.73-7.308 c-3.064-4.782-4.596-7.203-4.596-7.263c0-0.029,0.986-1.584,2.959-4.663c2.092-3.139,3.183-4.753,3.273-4.842 c1.016-1.046,2.75-1.614,5.201-1.704h0.762V0.037h-0.359c-0.359,0.09-2.003,0.135-4.932,0.135c-3.468,0-5.396-0.045-5.784-0.135 h-0.404v2.062h0.359c0.926,0.09,1.614,0.389,2.062,0.897c0.388,0.389,0.493,0.747,0.314,1.076c0,0.03-0.778,1.248-2.331,3.654 c-1.555,2.406-2.347,3.609-2.376,3.609c-0.06,0-0.979-1.397-2.757-4.192c-1.779-2.795-2.668-4.237-2.668-4.327 c0.06-0.149,0.404-0.306,1.031-0.471c0.628-0.164,1.195-0.247,1.704-0.247h0.224V0.037h-0.493c-0.658,0.09-2.84,0.135-6.546,0.135 c-3.318,0-5.201-0.045-5.649-0.135h-0.404v2.062h0.897h0.628c1.614,0,2.69,0.224,3.228,0.673c0.09,0.09,1.464,2.212,4.125,6.367 c2.66,4.155,3.99,6.262,3.99,6.322c0,0.03-1.188,1.868-3.564,5.515c-2.376,3.647-3.625,5.56-3.744,5.739 c-0.957,1.166-2.765,1.793-5.425,1.883H88.48v2.062h0.359c0.359-0.09,2.002-0.135,4.932-0.135c3.467,0,5.395,0.045,5.784,0.135 H100.003z"/><path d="M37.736,15.499h-3.429c-2.264,0-3.396-0.011-3.396-0.034l1.715-5.077l1.681-5.043l0.672,1.984 c0.493,1.435,1.064,3.127,1.715,5.077L37.736,15.499z M31.583,24.072v-1.547h-0.168c-0.493,0-0.958-0.095-1.395-0.286 c-0.437-0.19-0.723-0.431-0.857-0.723c-0.067-0.089-0.101-0.19-0.101-0.303c0-0.134,0.224-0.863,0.672-2.185l0.672-1.984h7.834 l0.807,2.387c0.538,1.614,0.807,2.443,0.807,2.488c0,0.403-0.785,0.605-2.353,0.605h-0.437v1.547h0.336 c0.336-0.067,1.95-0.101,4.841-0.101c2.51,0,3.934,0.034,4.27,0.101h0.303v-1.547h-1.009c-1.166-0.022-1.872-0.146-2.118-0.37 c-0.09-0.089-0.168-0.202-0.235-0.336c-0.516-1.591-1.855-5.581-4.018-11.969c-2.163-6.388-3.256-9.593-3.278-9.616 C36.066,0.101,35.797,0.023,35.348,0h-0.303c-0.359,0-0.572,0.09-0.639,0.269c-0.023,0.023-0.611,1.754-1.765,5.194 c-1.155,3.441-2.315,6.892-3.48,10.355c-1.166,3.463-1.76,5.228-1.782,5.295c-0.449,0.874-1.479,1.345-3.093,1.412h-0.504v1.547 h0.235c0.269-0.067,1.401-0.101,3.396-0.101c2.174,0,3.463,0.034,3.866,0.101H31.583z"/><path d="M68.318,37.806c-0.299,0.299-0.591,0.478-0.874,0.538c-0.284,0.06-1.039,0.105-2.264,0.135H63.7v2.062h26.229v-0.135 c0.06-0.09,0.381-2.085,0.964-5.986c0.583-3.901,0.889-5.896,0.919-5.986v-0.135h-1.793v0.135c-0.03,0.06-0.105,0.464-0.224,1.211 c-0.269,1.793-0.613,3.244-1.031,4.349c-0.509,1.375-1.248,2.399-2.219,3.071c-0.972,0.673-2.324,1.114-4.058,1.323 c-0.419,0.03-1.973,0.045-4.663,0.045h-2.287c-1.375,0-2.152-0.074-2.331-0.224c-0.09-0.06-0.15-0.164-0.179-0.314 c-0.03-0.06-0.045-2.107-0.045-6.142v-6.008h2.421c1.943,0.03,3.139,0.12,3.587,0.269c0.836,0.24,1.405,0.666,1.704,1.278 c0.298,0.613,0.478,1.547,0.538,2.802v0.897h1.793V18.437h-1.793v0.897c-0.06,1.255-0.24,2.19-0.538,2.802 c-0.299,0.613-0.867,1.039-1.704,1.278c-0.448,0.15-1.644,0.24-3.587,0.269h-2.421v-5.425c0-3.646,0.015-5.499,0.045-5.56 c0.09-0.298,0.269-0.463,0.538-0.493c0.239-0.06,1.853-0.09,4.842-0.09c1.733,0,2.75,0.015,3.049,0.045 c2.451,0.15,4.177,0.74,5.179,1.771c1.001,1.031,1.681,2.952,2.04,5.761c0.06,0.538,0.104,0.852,0.135,0.942v0.179h1.793v-0.179 c0-0.029-0.209-1.763-0.628-5.201l-0.628-5.201v-0.179H63.7v2.062h1.48c1.225,0.03,1.98,0.075,2.264,0.135 c0.284,0.06,0.575,0.24,0.874,0.538V37.806z"/></g></svg>