<svg xmlns="http://www.w3.org/2000/svg" viewBox="0 0 910 148"><g fill="#fff"><path d="M125.33,33.35,68.69,1.09a9.38,9.38,0,0,0-8.36,0L3.69,33.35c-3,1.5-4.18,3.91-4.18,7.2v67.12 c0,3.29,1.2,5.4,4.18,7.2l56.64,32.26a9.38,9.38,0,0,0,8.36,0l56.64-32.26c3-1.8,4.18-3.91,4.18-7.2V40.55 C129.51,36.66,127.7,34.55,125.33,33.35ZM64.51,31.29a16,16,0,1,1-16,16A16,16,0,0,1,64.51,31.29Zm18,81.53 a52,52,0,0,1-18.08,3.23,51.24,51.24,0,0,1-17.95-3.23c-18.69-7.12-32-25.68-32-47.45a52.06,52.06,0,0,1,.27-5.32 c26.93.14,48.72,22.71,48.72,50.55v1.18h2.1V110.6c0-27.84,21.75-50.41,48.64-50.55a52.06,52.06,0,0,1,.27,5.32 C114.51,87.14,101.2,105.7,82.55,112.82Z"/><path d="M165.58,34.35a2.85,2.85,0,0,1,2.89-2.89h10.58a2.92,2.92,0,0,1,2.89,2.89V66.82l30.3-34.16a2.89,2.89,0,0,1,2.29-1.2h12 a2.56,2.56,0,0,1,1.93,4.33L197.09,71.15l33.67,40.28a2.64,2.64,0,0,1-2.16,4.21H215.49a2.64,2.64,0,0,1-2.17-.84L181.94,76.08 v36.67a2.92,2.92,0,0,1-2.89,2.89H168.47a2.85,2.85,0,0,1-2.89-2.89Z"/><path d="M239.54,34.11a2.84,2.84,0,0,1,2.65-2.65h9.74a2.75,2.75,0,0,1,2.64,2.65V63.57 c2.77-2.41,7.58-4.69,14.19-4.69,17.68,0,22.49,12.27,22.49,26.22V113a2.75,2.75,0,0,1-2.65,2.65h-9.74 a2.67,2.67,0,0,1-2.64-2.65V85c0-7.69-3.49-12.38-10.1-12.38S256,76.68,254.57,82.33V113c0,1.57-.72,2.65-2.88,2.65 h-9.5a2.75,2.75,0,0,1-2.65-2.65Z"/><path d="M321.79,80.53a40.83,40.83,0,0,1,10.7,1.56c.24-7.1-1.8-10.46-7.69-10.46a69.78,69.78,0,0,0-15.64,2 c-1.8.6-2.88-.72-3.12-2.4L304.83,65a2.53,2.53,0,0,1,1.81-3.36,69.71,69.71,0,0,1,19-2.77c17.32,0,20.92,9,20.92,24.17 V113a2.67,2.67,0,0,1-2.64,2.65h-4.09c-1,0-1.69-.36-2.41-1.92L335.86,110a24.36,24.36,0,0,1-17.44,7 c-11.06,0-18.76-7.09-18.76-19C299.66,88.1,307.72,80.53,321.79,80.53Zm.36,25.25c4.93,0,9.26-3.85,10-5.89V91.71 A22.21,22.21,0,0,0,324,90c-6.37,0-9.86,3-9.86,7.93C314.09,102.65,317,105.78,322.15,105.78Z"/><path d="M359.07,62.73a2.66,2.66,0,0,1,2.64-2.65h4.57a2.13,2.13,0,0,1,2.29,1.69l2,5.17a22.43,22.43,0,0,1,17.92-8.06 c17.68,0,22.25,11.9,22.25,25.37V113a2.76,2.76,0,0,1-2.65,2.65h-9.74a2.67,2.67,0,0,1-2.64-2.65V84.25 c0-7.21-2.89-11.66-9.63-11.66a12.23,12.23,0,0,0-12,8.66V113c0,2.05-.84,2.65-3.49,2.65h-8.9a2.75,2.75,0,0,1-2.64-2.65Z"/><path d="M439.2,112.51l37.4-80.93a2.16,2.16,0,0,1,2-1.32h1.21a2,2,0,0,1,2,1.32l37,80.93a2.13,2.13,0,0,1-2,3.13H506.42 c-1.8,0-2.64-.72-3.48-2.41l-5.9-13h-36l-5.89,13a3.63,3.63,0,0,1-3.49,2.41H441.25A2.13,2.13,0,0,1,439.2,112.51Z M491.15,86.9l-12-26.46h-.37L467,86.9Z"/><path d="M549.88,58.88c8.66,0,15.39,3.73,20.68,9.38,1.2,1.2.6,2.77-.6,4l-5.05,5.53 c-1.2,1.32-2.53.72-3.61-.36-2.64-2.53-5.89-4.81-11.06-4.81-8.66,0-14.67,6.73-14.67,15.27s5.89,15.39,14.55,15.39 c6.13,0,9.38-3.36,11.78-6.13a2.61,2.61,0,0,1,3.49-.36l5.41,4.57 c1.33,1.2,1.93,2.52,1,4-4.69,7.33-12.14,11.66-22,11.66-16.24,0-29.34-12.38-29.34-29.1C520.42,71.51,533.4,58.88,549.88,58.88Z"/><path d="M601.33,80.53A40.83,40.83,0,0,1,612,82.09c.24-7.1-1.8-10.46-7.69-10.46a69.78,69.78,0,0,0-15.64,2 c-1.8.6-2.88-.72-3.12-2.4L584.37,65a2.53,2.53,0,0,1,1.81-3.36,69.71,69.71,0,0,1,19-2.77c17.31,0,20.92,9,20.92,24.17V113 a2.67,2.67,0,0,1-2.64,2.65h-4.09c-1,0-1.69-.36-2.41-1.92L615.4,110A24.36,24.36,0,0,1,598,117c-11.06,0-18.76-7.09-18.76-19 C579.2,88.1,587.26,80.53,601.33,80.53Zm.36,25.25c4.93,0,9.26-3.85,10-5.89V91.71A22.21,22.21,0,0,0,603.49,90 c-6.37,0-9.86,3-9.86,7.93C593.63,102.65,596.52,105.78,601.69,105.78Z"/><path d="M663.07,58.88a41.4,41.4,0,0,1,13.35,2.28v-27a2.84,2.84,0,0,1,2.65-2.65h9.74a2.75,2.75,0,0,1,2.64,2.65V113 a2.67,2.67,0,0,1-2.64,2.65h-4.45c-1.33,0-2.17-1.08-2.65-2.65l-1.44-4.33a24,24,0,0,1-18.16,8.3c-15.15,0-26.58-12.26-26.58-29.1 C635.53,71.63,646.48,58.88,663.07,58.88Zm13.35,16.84a22,22,0,0,0-11.54-3.13c-9.14,0-13.83,7.45-13.83,15.27 s4.45,15.39,13.1,15.39c7.22,0,11.07-4.57,12.27-7.69Z"/><path d="M729.09,58.88c14.43,0,25.49,10.7,25.49,25.73,0,.85-.12,2.77-.24,3.61a2.83,2.83,0,0,1-2.64,2.53H716.1 c.12,6.85,5.77,12.86,13.83,12.86a18.46,18.46,0,0,0,11.91-4.08c1.32-1.09,2.76-1.21,3.6,0l4.69,6.25a2.34,2.34,0,0,1-.24,3.61 A31.4,31.4,0,0,1,729.21,117c-16.6,0-28.14-13.23-28.14-29.1C701.07,72.23,712.61,58.88,729.09,58.88Zm10.34,22 c-.24-5.42-4.57-9.62-10.7-9.62-6.74,0-11.07,4.08-11.79,9.62Z"/><path d="M763.48,62.73a2.66,2.66,0,0,1,2.64-2.65h4.33a2.15,2.15,0,0,1,2.29,1.57l2,5.29a21.13,21.13,0,0,1,17-8.06 c8.06,0,12,2.89,16.59,8.42,2.41-2.53,7.94-8.42,17.92-8.42,17.8,0,22,11.3,22,25.73V113a2.7,2.7,0,0,1-2.77,2.65h-9.62 a2.67,2.67,0,0,1-2.64-2.65V84.25c0-7.21-2.65-11.66-9.62-11.66-8.06,0-10.35,5.77-10.35,5.77s.24,2.77.24,5.29V113 a2.75,2.75,0,0,1-2.64,2.65H801a2.59,2.59,0,0,1-2.65-2.65V84.25c0-7.21-2-11.66-9.14-11.66-6.85,0-9.38,4.81-10.7,8.66V113 a2.75,2.75,0,0,1-2.65,2.65h-9.74a2.75,2.75,0,0,1-2.64-2.65Z"/><path d="M854,63.69c-.72-1.92.24-3.61,2.4-3.61H868a2.15,2.15,0,0,1,2.28,1.57l10,33.19h.24l12.63-33.19c.84-1.45,1.8-1.57,3.49-1.57 h10.22a2.44,2.44,0,0,1,2.4,3.61l-32.7,78.89a2.83,2.83,0,0,1-2.41,1.68H862.57a2.51,2.51,0,0,1-2.41-3.73l11.18-28.14Z"/></g></svg>