<svg xmlns="http://www.w3.org/2000/svg" width="800" height="800"><g><title>background</title><rect id="canvas_background" width="802" height="802" x="-1" y="-1" fill="#fff"/><g id="canvasGrid" width="100%" height="100%" x="0" y="0" display="none"><rect width="100%" height="100%" x="0" y="0" fill="url(#gridpattern)" stroke-width="0"/></g></g><g><title>Layer 1</title><line id="svg_1" x1="0" x2="400" y1="800" y2="0" fill="none" stroke="#000" stroke-linecap="undefined" stroke-linejoin="undefined" stroke-width="14"/><line id="svg_2" x1="800" x2="400" y1="800" y2="0" fill="none" stroke="#000" stroke-linecap="undefined" stroke-linejoin="undefined" stroke-width="14"/><line id="svg_3" x1="0" x2="400" y1="0" y2="800" fill="none" stroke="#000" stroke-linecap="undefined" stroke-linejoin="undefined" stroke-width="14"/><line id="svg_4" x1="800" x2="400" y1="0" y2="800" fill="none" stroke="#000" stroke-linecap="undefined" stroke-linejoin="undefined" stroke-width="14"/><path id="svg_5" fill="#bcf955" stroke="#000" stroke-width="0" d="m406.03325,800.30389l194.35504,-392.13148l194.35504,392.13148l-388.71008,0z"/><path id="svg_6" fill="#bcf955" stroke="#000" stroke-width="0" d="m1289.49403,111.25773l0.745,-1.30375l0.745,1.30375l-1.49,0z"/><path id="svg_8" fill="#bcf955" stroke="#000" stroke-width="0" d="m406.03325,391.21419l194.35504,-392.13148l194.35504,392.13148l-388.71008,0z" transform="rotate(180 600.3883056640625,195.14845275878903)"/><path id="svg_9" fill="#c690db" stroke="#000" stroke-width="0" d="m6.03444,801.60258l194.35504,-392.13148l194.35504,392.13148l-388.71008,0z"/><path id="svg_10" fill="#c690db" stroke="#000" stroke-width="0" d="m6.03444,388.61678l194.35504,-392.13148l194.35504,392.13148l-388.71008,0z" transform="rotate(180 200.38946533203125,192.5511016845703)"/><path id="svg_11" fill="#e53612" stroke="#000" stroke-opacity="null" stroke-width="0" d="m-290.32436,496.4171l387.01184,-194.80459l387.01184,194.80459l-774.02367,0z" transform="rotate(90 96.68746948242183,399.01477050781256)"/><path id="svg_12" fill="#e53612" stroke="#000" stroke-opacity="null" stroke-width="0" d="m316.16736,496.4171l387.01184,-194.8046l387.01184,194.8046l-774.02368,0z" transform="rotate(-90 703.1791381835938,399.01480102539057)"/></g></svg>