<?xml version="1.0" encoding="UTF-8"?>
<svg width="128px" height="128px" viewBox="0 0 128 128" version="1.1" xmlns="http://www.w3.org/2000/svg" xmlns:xlink="http://www.w3.org/1999/xlink">
    <title>flat-app-icon-simple</title>
    <g id="Page-1" stroke="none" stroke-width="1" fill="none" fill-rule="evenodd">
        <g id="Rectangle-2-+-Canvas-1" fill="#5778D8">
            <rect id="Rectangle-2" x="0" y="0" width="128" height="128"></rect>
        </g>
        <path d="M95.0807968,32 C97.3204921,32.3579722 99.0463216,35.4465567 100.323779,37.0967955 C102.930661,36.9920023 105.406425,37.6599516 107.868025,38.4012773 C112.324613,37.7612726 116.064348,35.2286845 120,33.2585592 C116.011896,36.5532507 115.470889,41.9133932 115.926589,46.8701405 C116.096058,49.4422289 115.377842,52.2347652 114.489958,54.8682423 C112.828428,59.1588222 109.619639,63.6813993 105.895412,63.4494413 C104.487512,63.404375 103.66963,62.597647 102.623228,61.7363621 C102.420239,63.4809065 101.622436,65.0375668 100.853366,66.5804552 C99.0773534,70.0013582 94.4362624,71.5088532 90.1388708,75.1616727 C85.8417712,78.8145475 91.5139374,91.8604987 92.8892275,94.2375204 C94.2642941,96.6147683 98.1030094,97.484429 96.6134607,99.6299521 C96.1577699,100.338522 95.4609972,100.591947 94.716329,100.866827 L93.7059606,101 C89.2927207,100.873756 87.3515751,100.884613 85.103993,97.1444535 L83.3522634,97.1952391 C81.3133034,97.1036109 82.1630366,97.1451436 80.8027538,97.0766094 C78.5284162,96.9870514 78.8927472,94.8002195 78.4926336,93.644824 C77.8525877,89.7227998 79.3396093,85.7805065 79.2926989,81.8577091 C79.2760905,80.4652088 77.3289032,75.5362615 76.6332573,73.7740584 C74.4524942,74.1895568 72.2599009,74.2687749 70.0475107,74.3803352 C64.9479395,74.3676941 59.8829535,73.73575 54.8545873,72.9332479 C53.8746851,77.0295252 50.962035,82.7629409 53.3695704,86.926019 C56.2918703,91.2322381 58.342599,92.4252542 61.5212776,92.6848991 C64.699922,92.944334 65.417682,96.5759937 64.6486531,97.8730967 C63.9679712,98.7695373 62.7716307,98.9322571 61.7551932,99.1494369 L59.7220446,99.2461381 C58.122126,99.1916713 56.6920935,98.7545352 55.2664878,98.0803589 C52.8857352,96.7354868 50.4268578,93.9395578 48.5999594,91.9322711 C49.0252753,92.7338429 49.278965,94.2986644 48.8931973,95.0268644 C47.8130585,96.5753036 43.1414466,96.565843 41.0020152,95.6036309 C38.5716563,94.5107803 32.6989646,86.8373289 31.7909926,81.0902566 C34.2065311,76.4675946 37.7254948,72.4409757 39.5058455,67.4075883 C35.6251554,64.9017885 33.5467112,60.822556 33.8165258,56.2018166 L33.9139136,55.6669337 C30.0954902,56.3903077 32.0756366,56.1211722 27.9680131,56.4356164 C14.8865628,56.395113 3.38247741,47.4193862 9.86025533,33.4695151 C10.2815058,32.6434667 10.6822338,31.8924464 11.3963383,32.2511145 C11.9694865,32.5389127 11.8871568,33.6933895 11.5988652,34.9736464 C7.8960767,51.6418611 25.9931115,51.7694368 37.1176805,48.6850702 C38.2217853,48.3788887 40.417688,46.3167682 41.9388318,45.6331544 C44.4252788,44.5158135 47.1240633,44.0624798 49.8023917,43.7358285 C56.4639207,42.9676883 64.4702622,46.5189227 68.5382632,46.6348798 C72.6063121,46.7508322 78.3932615,45.6491674 81.9456313,45.8811231 C84.5231781,46.000466 87.0541681,46.4712806 89.5410917,47.1419511 C91.1508471,39.204474 91.2646541,33.3543433 95.0807968,32 Z M42.1927182,79.7037037 C41.4733257,81.1776315 40.5603919,82.6103814 40.0697112,84.1618439 C39.4955058,86.2549001 42.6217222,88.5131998 43.8339413,89.8074666 L44.2487428,90.1738184 L44.9302272,90.3473855 C45.7865741,90.0166074 47.5079442,90.5278337 48.4210526,90.7777778 C46.7396445,89.1685615 44.2064797,86.8054579 42.3814219,85.3156911 C41.7823809,83.5120968 42.0379821,81.6972231 42.1668666,79.8560223 L42.1927182,79.7037037 Z" id="Path-copy-4" fill="#000000"></path>
    </g>
</svg>