<svg xmlns="http://www.w3.org/2000/svg"><svg width="50.1%" viewBox="0 0 400000 522" preserveAspectRatio="xMinYMin slice"><path d="M400000 241H110l3-3c68.7-52.7 113.7-120 135-202 4-14.7 6-23 6-25 0-7.3-7-11-21-11-8 0-13.2.8-15.5 2.5-2.3 1.7-4.2 5.8-5.5 12.5-1.3 4.7-2.7 10.3-4 17-12 48.7-34.8 92-68.5 130S65.3 228.3 18 247c-10 4-16 7.7-18 11 0 8.7 6 14.3 18 17 47.3 18.7 87.8 47 121.5 85S196 441.3 208 490c.7 2 1.3 5 2 9s1.2 6.7 1.5 8c.3 1.3 1 3.3 2 6s2.2 4.5 3.5 5.5c1.3 1 3.3 1.8 6 2.5s6 1 10 1c14 0 21-3.7 21-11 0-2-2-10.3-6-25-20-79.3-65-146.7-135-202l-3-3h399890zM100 241v40h399900v-40z"/></svg><svg x="50%" width="50%" viewBox="0 0 400000 522" preserveAspectRatio="xMaxYMin slice"><path d="M399859 241c-764 0 0 0 0 0 40-3.3 68.7-15.7 86-37 10-12 15-25.3 15-40 0-22.7-9.8-40.7-29.5-54-19.7-13.3-43.5-21-71.5-23-17.3-1.3-26-8-26-20 0-13.3 8.7-20 26-20 38 0 71 11.2 99 33.5 0 0 7 5.6 21 16.7 14 11.2 21 33.5 21 66.8s-14 61.2-42 83.5c-28 22.3-61 33.5-99 33.5L0 241zM0 281v-40h399859v40z"/></svg></svg>