<svg xmlns="http://www.w3.org/2000/svg"><svg width="50.1%" viewBox="0 0 400000 716" preserveAspectRatio="xMinYMin slice"><path d="M0 267c.7 5.3 3 10 7 14h399993v-40H93c3.3-3.3 10.2-9.5 20.5-18.5s17.8-15.8 22.5-20.5c50.7-52 88-110.3 112-175 4-11.3 5-18.3 3-21-1.3-4-7.3-6-18-6-8 0-13 .7-15 2s-4.7 6.7-8 16c-42 98.7-107.3 174.7-196 228-6.7 4.7-10.7 8-12 10-1.3 2-2 5.7-2 11zm100-26v40h399900v-40zM0 435v40h400000v-40zm0 0v40h400000v-40z"/></svg><svg x="50%" width="50%" viewBox="0 0 400000 716" preserveAspectRatio="xMaxYMin slice"><path d="M399747 705c0 7.3 6.7 11 20 11 8 0 13-.8 15-2.5s4.7-6.8 8-15.5c40-94 99.3-166.3 178-217 13.3-8 20.3-12.3 21-13 5.3-3.3 8.5-5.8 9.5-7.5 1-1.7 1.5-5.2 1.5-10.5s-2.3-10.3-7-15H0v40h399908c-34 25.3-64.7 57-92 95-27.3 38-48.7 77.7-64 119-3.3 8.7-5 14-5 16zM0 435v40h399900v-40zm0-194v40h400000v-40zm0 0v40h400000v-40z"/></svg></svg>