<svg xmlns="http://www.w3.org/2000/svg"><svg width="50%" viewBox="0 0 400000 716" preserveAspectRatio="xMinYMin slice"><path d="M7 435c-4 4-6.3 8.7-7 14 0 5.3.7 9 2 11s5.3 5.3 12 10c90.7 54 156 130 196 228 3.3 10.7 6.3 16.3 9 17 2 .7 5 1 9 1h5c10.7 0 16.7-2 18-6 2-2.7 1-9.7-3-21-32-87.3-82.7-157.7-152-211l-3-3h399907v-40H7zm93 0v40h399900v-40zM0 241v40h399900v-40zm0 0v40h399900v-40z"/></svg><svg x="50%" width="50%" viewBox="0 0 400000 716" preserveAspectRatio="xMaxYMin slice"><path d="M0 241v40h399993c4.7-4.7 7-9.3 7-14 0-9.3-3.7-15.3-11-18-92.7-56.7-159-133.7-199-231-3.3-9.3-6-14.7-8-16-2-1.3-7-2-15-2-10.7 0-16.7 2-18 6-2 2.7-1 9.7 3 21 15.3 42 36.7 81.8 64 119.5 27.3 37.7 58 69.2 92 94.5zm0 0v40h399900v-40zm100 194v40h399900v-40zm0 0v40h399900v-40z"/></svg></svg>