<svg xmlns="http://www.w3.org/2000/svg"><svg viewBox="0 0 400000 1800" preserveAspectRatio="xMinYMin slice"><path d="M890 0h399110v40H902.084S818.667 308 638 880s-277 876.333-289 913c-4.667 4.667-12.667 7-24 7h-12c-1.333-3.333-3.667-11.667-7-25-35.333-125.333-106.667-373.333-214-744-10 12-21 25-33 39l-32 39c-6-5.333-15-14-27-26l25-30c26.667-32.667 52-63 76-91l52-60 208 722c56-175.333 126.333-397.333 211-666s153.833-488.167 207.5-658.5C833.167 129.167 864 32.667 872 10c4-6.667 10-10 18-10zm0 0h399110v40H902z"/></svg></svg>