<svg xmlns="http://www.w3.org/2000/svg"><svg viewBox="0 0 400000 1200" preserveAspectRatio="xMinYMin slice"><path d="M152 601c.667 0 18 39.667 52 119s68.167 158.667 102.5 238 51.833 119.333 52.5 120C699 373.333 869.667 17.667 871 11c4.667-7.333 11-11 19-11h399110v40H901.333L630 607c-38.667 80.667-84 175-136 283s-89.167 185.333-111.5 232-33.833 70.333-34.5 71c-4.667 4.667-12.333 7-23 7l-12-1-109-253C131.333 778 94.667 694 94 694c-10.667 8-22 16.667-34 26-22 17.333-33.333 26-34 26L0 720l76-59 76-60zM890 0h399110v40H901z"/></svg></svg>