<svg xmlns="http://www.w3.org/2000/svg"><svg viewBox="0 0 400000 3000" preserveAspectRatio="xMinYMin slice"><path d="M362 2713C701.333 913.667 871.333 13 872 11c3.333-7.333 9.333-11 18-11h399110v40H906.698S816.168 518 630.5 1506C444.833 2494 351 2989 349 2991c-2 6-10 9-24 9-8 0-12-.667-12-2s-5.333-32-16-92c-50.667-293.333-119.667-693.333-207-1200 0-1.333-5.333 8.667-16 30l-32 64-16 33-26-26 76-153 77-151c.667.667 35.667 202 105 604 67.333 400.667 102 602.667 104 606zM890 0h399110v40H906z"/></svg></svg>