<svg xmlns="http://www.w3.org/2000/svg"><svg viewBox="0 0 400000 1000" preserveAspectRatio="xMinYMin slice"><path d="M23 622c-2.667 0-7.167-2.667-13.5-8S0 604 0 600c0-2 .333-3.333 1-4 1.333-2.667 23.833-20.667 67.5-54s65.833-50.333 66.5-51c1.333-1.333 3-2 5-2 4.667 0 8.667 3.333 12 10l173 378c.667 0 35.333-71 104-213s137.5-285 206.5-429S740 17.333 742 14c5.333-9.333 12-14 20-14h399238v40H773.272L548 507 313 993c-2.667 4.667-9 7-19 7-6 0-10-1-12-3L88 575l-65 47zM762 0h399238v40H773z"/></svg></svg>