<svg xmlns="http://www.w3.org/2000/svg"><svg viewBox="0 0 400000 2400" preserveAspectRatio="xMinYMin slice"><path d="M313 2398c-1.333-.667-38.5-172-111.5-514S91.667 1370.667 91 1370c0-2-10.667 14.333-32 49-4.667 7.333-9.833 15.667-15.5 25s-9.833 16-12.5 20l-5 7c-4-3.333-8.333-7.667-13-13l-13-13 76-122 77-121 209 968c0-2 84.667-361.667 254-1079C785.333 373.667 870.667 13.333 872 10c4-6.667 10-10 18-10h399110v40H903.622S816.332 418.667 631 1206c-185.333 787.333-279.333 1182.333-282 1185-2 6-10 9-24 9-8 0-12-.667-12-2zM890 0h399110v40H903z"/></svg></svg>