<svg xmlns="http://www.w3.org/2000/svg"><svg width="50.1%" viewBox="0 0 400000 528" preserveAspectRatio="xMinYMin slice"><path d="M0 147h400000v40H0zm0 214c68 40 115.7 95.7 143 167h22c15.3 0 23-.3 23-1 0-1.3-5.3-13.7-16-37-18-35.3-41.3-69-70-101l-7-8h399905v-40H95l7-8c28.7-32 52-65.7 70-101 10.7-23.3 16-35.7 16-37 0-.7-7.7-1-23-1h-22C115.7 265.3 68 321 0 361zm0-174v-40h399900v40zm100 154v40h399900v-40z"/></svg><svg x="50%" width="50%" viewBox="0 0 400000 528" preserveAspectRatio="xMaxYMin slice"><path d="M400000 167c-70.7-42-118-97.7-142-167h-23c-15.3 0-23 .3-23 1 0 1.3 5.3 13.7 16 37 18 35.3 41.3 69 70 101l7 8H0v40h399905l-7 8c-28.7 32-52 65.7-70 101-10.7 23.3-16 35.7-16 37 0 .7 7.7 1 23 1h23c24-69.3 71.3-125 142-167zM100 147v40h399900v-40zM0 341v40h399900v-40z"/></svg></svg>