<svg xmlns="http://www.w3.org/2000/svg">
<svg width="50.1%" viewBox="0 0 400000 322" preserveAspectRatio="xMinYMin slice">
<path fill="black"
d="M 400000,242 435,242 C 64,242 168.3,92.6 21,62 15.1,60.8 3,62 3,62 1,62 0,63 0,65 l 0,38 c 76,158 257,219 435,219 l 399565,0 z"/>
</svg>

<svg x="50%" width="50%" viewBox="0 0 400000 322" preserveAspectRatio="xMaxYMin slice">
<path fill="black"
d="M0,242l399565,0c371,0,266.7,-149.4,414,-180c5.9,-1.2,18,0,18,0c2,0,3,1,3,3l0,38c-76,158,-257,219,-435,219l-399565,0z"/>
</svg>
</svg>