<svg xmlns="http://www.w3.org/2000/svg" viewBox="0 0 176 28"><g fill="#fff"><path d="M33.66 6.5a.54.54 0 0 1 .55-.5h2a.55.55 0 0 1 .55.55v6.2l5.79-6.52A.53.53 0 0 1 43 6h2.3a.48.48 0 0 1 .36.82l-6 6.75 6.43 7.69a.51.51 0 0 1-.41.81h-2.5a.55.55 0 0 1-.42-.16l-6-7.4v7a.56.56 0 0 1-.55.56h-2a.55.55 0 0 1-.55-.56zm14.12-.05a.54.54 0 0 1 .5-.5h1.86a.52.52 0 0 1 .51.5v5.63a4.07 4.07 0 0 1 2.7-.9c3.38 0 4.3 2.34 4.3 5v5.32a.53.53 0 0 1-.51.51h-1.86a.51.51 0 0 1-.5-.51v-5.34c0-1.47-.67-2.36-1.93-2.36a2.18 2.18 0 0 0-2.2 1.86v5.85c0 .3-.14.51-.56.51h-1.81a.52.52 0 0 1-.5-.51zm15.7 8.86a7.7 7.7 0 0 1 2 .3c0-1.35-.34-2-1.47-2a13.49 13.49 0 0 0-3 .39c-.35.12-.55-.13-.6-.45l-.23-1.2a.48.48 0 0 1 .34-.64 13.49 13.49 0 0 1 3.63-.53c3.31 0 4 1.72 4 4.62v5.71a.51.51 0 0 1-.51.51h-.78c-.18 0-.32-.07-.46-.37l-.3-.71a4.66 4.66 0 0 1-3.33 1.33 3.38 3.38 0 0 1-3.58-3.63c.06-1.88 1.6-3.33 4.29-3.33zm.07 4.82a2.27 2.27 0 0 0 1.9-1.13v-1.55a4.23 4.23 0 0 0-1.56-.32c-1.22 0-1.88.57-1.88 1.51a1.4 1.4 0 0 0 1.54 1.49zm7.04-8.21a.51.51 0 0 1 .51-.51h.9a.42.42 0 0 1 .44.32l.39 1a4.26 4.26 0 0 1 3.42-1.54c3.37 0 4.24 2.27 4.24 4.84v5.49A.52.52 0 0 1 80 22h-1.9a.51.51 0 0 1-.51-.51V16c0-1.37-.55-2.22-1.83-2.22a2.34 2.34 0 0 0-2.3 1.65v6.06c0 .39-.16.51-.66.51h-1.7a.53.53 0 0 1-.51-.51zm15.3 9.5L93 6a.4.4 0 0 1 .39-.25h.23A.39.39 0 0 1 94 6l7.07 15.45a.41.41 0 0 1-.39.6h-2a.66.66 0 0 1-.67-.46l-1.12-2.48h-6.82l-1.13 2.48a.69.69 0 0 1-.66.46h-2a.4.4 0 0 1-.39-.63zm9.91-4.89l-2.29-5.05h-.07l-2.25 5.05zm11.2-5.35a5.24 5.24 0 0 1 4 1.82c.23.23.12.53-.11.76l-1 1.06c-.23.25-.48.13-.69-.07a2.84 2.84 0 0 0-2.11-.92 2.78 2.78 0 0 0-2.8 2.91 2.77 2.77 0 0 0 2.78 2.94 2.81 2.81 0 0 0 2.25-1.17.5.5 0 0 1 .66-.07l1 .87c.25.23.37.49.18.76a4.75 4.75 0 0 1-4.2 2.23 5.55 5.55 0 1 1 0-11.09zm9.83 4.13a7.82 7.82 0 0 1 2 .3c0-1.35-.35-2-1.47-2a13.5 13.5 0 0 0-3 .39c-.34.12-.55-.13-.59-.45l-.23-1.2a.48.48 0 0 1 .34-.64 13.49 13.49 0 0 1 3.63-.53c3.3 0 4 1.72 4 4.62v5.71a.51.51 0 0 1-.5.51h-.78c-.19 0-.32-.07-.46-.37l-.3-.71a4.68 4.68 0 0 1-3.33 1.33 3.38 3.38 0 0 1-3.58-3.63c.05-1.88 1.59-3.33 4.27-3.33zm.07 4.82a2.29 2.29 0 0 0 1.91-1.13v-1.55a4.23 4.23 0 0 0-1.56-.32c-1.22 0-1.88.57-1.88 1.51a1.39 1.39 0 0 0 1.53 1.49zm11.72-8.95a7.67 7.67 0 0 1 2.55.44V6.45a.54.54 0 0 1 .5-.5h1.86a.52.52 0 0 1 .51.5v15.06a.51.51 0 0 1-.51.51h-.85c-.25 0-.41-.21-.5-.51l-.28-.83a4.55 4.55 0 0 1-3.46 1.59c-2.9 0-5.08-2.34-5.08-5.56a5.21 5.21 0 0 1 5.26-5.53zm2.55 3.22a4.18 4.18 0 0 0-2.21-.6 2.68 2.68 0 0 0-2.64 2.91c0 1.5.85 2.94 2.51 2.94a2.43 2.43 0 0 0 2.34-1.47zm10.05-3.22a4.75 4.75 0 0 1 4.87 4.91c0 .16 0 .53-.05.69a.53.53 0 0 1-.5.48h-6.8a2.55 2.55 0 0 0 2.64 2.46 3.49 3.49 0 0 0 2.27-.78c.26-.21.53-.23.69 0l.9 1.19a.45.45 0 0 1-.05.69 6 6 0 0 1-3.95 1.45 5.37 5.37 0 0 1-5.37-5.56 5.37 5.37 0 0 1 5.35-5.53zm2 4.2a1.94 1.94 0 0 0-2-1.83 2.11 2.11 0 0 0-2.25 1.83zm4.57-3.46a.51.51 0 0 1 .5-.51h.83a.4.4 0 0 1 .43.3l.39 1a4 4 0 0 1 3.24-1.54 3.61 3.61 0 0 1 3.17 1.61 4.53 4.53 0 0 1 3.42-1.61c3.39 0 4.2 2.16 4.2 4.91v5.42a.52.52 0 0 1-.53.51h-1.84a.51.51 0 0 1-.5-.51V16c0-1.37-.51-2.22-1.84-2.22a2 2 0 0 0-2 1.1v6.6a.52.52 0 0 1-.5.51H155a.5.5 0 0 1-.51-.51V16c0-1.37-.39-2.22-1.74-2.22a2.1 2.1 0 0 0-2 1.65v6.06a.52.52 0 0 1-.5.51h-1.86a.52.52 0 0 1-.5-.51zm17.28.18a.47.47 0 0 1 .46-.69h2.2a.42.42 0 0 1 .44.3l1.9 6.33h.05l2.41-6.33c.16-.28.34-.3.67-.3h2a.47.47 0 0 1 .46.69l-6.25 15.06a.53.53 0 0 1-.46.32h-2.2a.48.48 0 0 1-.46-.71l2.13-5.37z"/><path fill="#14bf96" d="M2.31 5.8A3.56 3.56 0 0 0 .66 8.6v10.8a3.56 3.56 0 0 0 1.65 2.8L12 27.62a3.75 3.75 0 0 0 3.3 0L25 22.2a3.56 3.56 0 0 0 1.65-2.8V8.6A3.56 3.56 0 0 0 25 5.8L15.31.38a3.75 3.75 0 0 0-3.3 0z"/><path d="M23.61 11.32c-5.38 0-9.4 4.46-9.4 9.93v.23h-1.08v-.23c0-5.47-4-9.91-9.42-9.93v1a9.91 9.91 0 0 0 6.4 9.32 10.47 10.47 0 0 0 3.59.64 10.64 10.64 0 0 0 3.62-.64 9.92 9.92 0 0 0 6.39-9.32c-.05-.32-.07-.66-.1-1z"/><circle cx="13.66" cy="8.74" r="3"/></g></svg>