<svg xmlns="http://www.w3.org/2000/svg" viewBox="0 0 910 148"><path d="M125.33 33.35L68.69 1.09a9.38 9.38 0 0 0-8.36 0L3.69 33.35c-3 1.5-4.18 3.91-4.18 7.2v67.12c0 3.29 1.2 5.4 4.18 7.2l56.64 32.26a9.38 9.38 0 0 0 8.36 0l56.64-32.26c3-1.8 4.18-3.91 4.18-7.2V40.55c0-3.89-1.81-6-4.18-7.2zm-60.82-2.06a16 16 0 1 1-16 16 16 16 0 0 1 16-16zm18 81.53a52 52 0 0 1-18.08 3.23 51.24 51.24 0 0 1-17.95-3.23c-18.69-7.12-32-25.68-32-47.45a52.06 52.06 0 0 1 .27-5.32c26.93.14 48.72 22.71 48.72 50.55v1.18h2.1v-1.18c0-27.84 21.75-50.41 48.64-50.55a52.06 52.06 0 0 1 .27 5.32c.03 21.77-13.28 40.33-31.93 47.45zm83.07-78.47a2.85 2.85 0 0 1 2.89-2.89h10.58a2.92 2.92 0 0 1 2.89 2.89v32.47l30.3-34.16a2.89 2.89 0 0 1 2.29-1.2h12a2.56 2.56 0 0 1 1.93 4.33l-31.37 35.36 33.67 40.28a2.64 2.64 0 0 1-2.16 4.21h-13.11a2.64 2.64 0 0 1-2.17-.84l-31.38-38.72v36.67a2.92 2.92 0 0 1-2.89 2.89h-10.58a2.85 2.85 0 0 1-2.89-2.89zm73.96-.24a2.84 2.84 0 0 1 2.65-2.65h9.74a2.75 2.75 0 0 1 2.64 2.65v29.46c2.77-2.41 7.58-4.69 14.19-4.69 17.68 0 22.49 12.27 22.49 26.22V113a2.75 2.75 0 0 1-2.65 2.65h-9.74a2.67 2.67 0 0 1-2.64-2.65V85c0-7.69-3.49-12.38-10.1-12.38s-10.12 4.06-11.55 9.71V113c0 1.57-.72 2.65-2.88 2.65h-9.5a2.75 2.75 0 0 1-2.65-2.65zm82.25 46.42a40.83 40.83 0 0 1 10.7 1.56c.24-7.1-1.8-10.46-7.69-10.46a69.78 69.78 0 0 0-15.64 2c-1.8.6-2.88-.72-3.12-2.4L304.83 65a2.53 2.53 0 0 1 1.81-3.36 69.71 69.71 0 0 1 19-2.77c17.32 0 20.92 9 20.92 24.17V113a2.67 2.67 0 0 1-2.64 2.65h-4.09c-1 0-1.69-.36-2.41-1.92l-1.56-3.73a24.36 24.36 0 0 1-17.44 7c-11.06 0-18.76-7.09-18.76-19 0-9.9 8.06-17.47 22.13-17.47zm.36 25.25c4.93 0 9.26-3.85 10-5.89v-8.18A22.21 22.21 0 0 0 324 90c-6.37 0-9.86 3-9.86 7.93-.05 4.72 2.86 7.85 8.01 7.85zm36.92-43.05a2.66 2.66 0 0 1 2.64-2.65h4.57a2.13 2.13 0 0 1 2.29 1.69l2 5.17a22.43 22.43 0 0 1 17.92-8.06c17.68 0 22.25 11.9 22.25 25.37V113a2.76 2.76 0 0 1-2.65 2.65h-9.74a2.67 2.67 0 0 1-2.64-2.65V84.25c0-7.21-2.89-11.66-9.63-11.66a12.23 12.23 0 0 0-12 8.66V113c0 2.05-.84 2.65-3.49 2.65h-8.9a2.75 2.75 0 0 1-2.64-2.65zm80.13 49.78l37.4-80.93a2.16 2.16 0 0 1 2-1.32h1.21a2 2 0 0 1 2 1.32l37 80.93a2.13 2.13 0 0 1-2 3.13h-10.39c-1.8 0-2.64-.72-3.48-2.41l-5.9-13h-36l-5.89 13a3.63 3.63 0 0 1-3.49 2.41h-10.41a2.13 2.13 0 0 1-2.05-3.13zm51.95-25.61l-12-26.46h-.37L467 86.9zm58.73-28.02c8.66 0 15.39 3.73 20.68 9.38 1.2 1.2.6 2.77-.6 4l-5.05 5.53c-1.2 1.32-2.53.72-3.61-.36-2.64-2.53-5.89-4.81-11.06-4.81-8.66 0-14.67 6.73-14.67 15.27s5.89 15.39 14.55 15.39c6.13 0 9.38-3.36 11.78-6.13a2.61 2.61 0 0 1 3.49-.36l5.41 4.57c1.33 1.2 1.93 2.52 1 4-4.69 7.33-12.14 11.66-22 11.66-16.24 0-29.34-12.38-29.34-29.1-.04-16.41 12.94-29.04 29.42-29.04zm51.45 21.65A40.83 40.83 0 0 1 612 82.09c.24-7.1-1.8-10.46-7.69-10.46a69.78 69.78 0 0 0-15.64 2c-1.8.6-2.88-.72-3.12-2.4L584.37 65a2.53 2.53 0 0 1 1.81-3.36 69.71 69.71 0 0 1 19-2.77c17.31 0 20.92 9 20.92 24.17V113a2.67 2.67 0 0 1-2.64 2.65h-4.09c-1 0-1.69-.36-2.41-1.92L615.4 110a24.36 24.36 0 0 1-17.4 7c-11.06 0-18.76-7.09-18.76-19-.04-9.9 8.02-17.47 22.09-17.47zm.36 25.25c4.93 0 9.26-3.85 10-5.89v-8.18a22.21 22.21 0 0 0-8.2-1.71c-6.37 0-9.86 3-9.86 7.93 0 4.72 2.89 7.85 8.06 7.85zm61.38-46.9a41.4 41.4 0 0 1 13.35 2.28v-27a2.84 2.84 0 0 1 2.65-2.65h9.74a2.75 2.75 0 0 1 2.64 2.65V113a2.67 2.67 0 0 1-2.64 2.65h-4.45c-1.33 0-2.17-1.08-2.65-2.65l-1.44-4.33a24 24 0 0 1-18.16 8.3c-15.15 0-26.58-12.26-26.58-29.1 0-16.24 10.95-28.99 27.54-28.99zm13.35 16.84a22 22 0 0 0-11.54-3.13c-9.14 0-13.83 7.45-13.83 15.27s4.45 15.39 13.1 15.39c7.22 0 11.07-4.57 12.27-7.69zm52.67-16.84c14.43 0 25.49 10.7 25.49 25.73 0 .85-.12 2.77-.24 3.61a2.83 2.83 0 0 1-2.64 2.53h-35.6c.12 6.85 5.77 12.86 13.83 12.86a18.46 18.46 0 0 0 11.91-4.08c1.32-1.09 2.76-1.21 3.6 0l4.69 6.25a2.34 2.34 0 0 1-.24 3.61 31.4 31.4 0 0 1-20.68 7.61c-16.6 0-28.14-13.23-28.14-29.1 0-15.67 11.54-29.02 28.02-29.02zm10.34 22c-.24-5.42-4.57-9.62-10.7-9.62-6.74 0-11.07 4.08-11.79 9.62zm24.05-18.15a2.66 2.66 0 0 1 2.64-2.65h4.33a2.15 2.15 0 0 1 2.29 1.57l2 5.29a21.13 21.13 0 0 1 17-8.06c8.06 0 12 2.89 16.59 8.42 2.41-2.53 7.94-8.42 17.92-8.42 17.8 0 22 11.3 22 25.73V113a2.7 2.7 0 0 1-2.77 2.65h-9.62a2.67 2.67 0 0 1-2.64-2.65V84.25c0-7.21-2.65-11.66-9.62-11.66-8.06 0-10.35 5.77-10.35 5.77s.24 2.77.24 5.29V113a2.75 2.75 0 0 1-2.64 2.65H801a2.59 2.59 0 0 1-2.65-2.65V84.25c0-7.21-2-11.66-9.14-11.66-6.85 0-9.38 4.81-10.7 8.66V113a2.75 2.75 0 0 1-2.65 2.65h-9.74a2.75 2.75 0 0 1-2.64-2.65zm90.52.96c-.72-1.92.24-3.61 2.4-3.61H868a2.15 2.15 0 0 1 2.28 1.57l10 33.19h.24l12.63-33.19c.84-1.45 1.8-1.57 3.49-1.57h10.22a2.44 2.44 0 0 1 2.4 3.61l-32.7 78.89a2.83 2.83 0 0 1-2.41 1.68h-11.58a2.51 2.51 0 0 1-2.41-3.73l11.18-28.14z" fill="#fff"/></svg>